<svg xmlns="http://www.w3.org/2000/svg" width="30" height="30" viewBox="0 0 30 30">
  <g id="Group_4" data-name="Group 4" transform="translate(-103 -46)">
    <path id="Path_1" data-name="Path 1" d="M32,4.5H7A2.5,2.5,0,0,0,4.5,7V32A2.5,2.5,0,0,0,7,34.5H32A2.5,2.5,0,0,0,34.5,32V7A2.5,2.5,0,0,0,32,4.5Zm.313,27.188a.627.627,0,0,1-.625.625H7.313a.627.627,0,0,1-.625-.625V7.313a.627.627,0,0,1,.625-.625H31.688a.627.627,0,0,1,.625.625Z" transform="translate(98.5 41.5)"/>
    <path id="Path_2" data-name="Path 2" d="M28.55,13.563l-1.483-1.273a.352.352,0,0,0-.236-.084h0a.337.337,0,0,0-.236.084L16.318,20.932l-3.74-3.122a.372.372,0,0,0-.472,0l-1.5,1.252a.249.249,0,0,0,0,.4L15.323,23.4a1.627,1.627,0,0,0,.986.4,1.7,1.7,0,0,0,.977-.387h.008l11.263-9.45A.265.265,0,0,0,28.55,13.563Z" transform="translate(98.5 43.001)"/>
  </g>
</svg>
